
<svg width="20px" height="17px" viewBox="0 0 20 17" version="1.1" xmlns="http://www.w3.org/2000/svg" xmlns:xlink="http://www.w3.org/1999/xlink">
    <g id="Page-1" stroke="none" stroke-width="1" fill="none" fill-rule="evenodd">
        <g id="Home" transform="translate(-1222.000000, -4614.000000)" fill="#000000">
            <g id="Group-17" transform="translate(0.000000, 4614.000000)">
                <g id="Twitter-black" transform="translate(1222.000000, 0.000000)">
                    <path d="M20.0000233,1.97291825 C19.2651446,2.30757643 18.4739231,2.53388953 17.6439641,2.63501044 C18.4915315,2.11496836 19.141882,1.29035937 19.4482739,0.308054413 C18.6547066,0.789575632 17.7777892,1.13988425 16.8410051,1.32767606 C16.094392,0.510292075 15.0273037,-0.00012083343 13.8463444,-0.00012083343 C11.5818593,-0.00012083343 9.74467863,1.88383484 9.74467863,4.2071742 C9.74467863,4.53701696 9.77989616,4.85722889 9.85033121,5.16540413 C6.44010349,4.98964858 3.4172844,3.31636099 1.39228278,0.767900614 C1.03893416,1.39147195 0.837019836,2.11496003 0.837019836,2.88539397 C0.837019836,4.34440764 1.56132875,5.63247534 2.6624588,6.38726344 C1.99097909,6.36679884 1.35706192,6.17539369 0.802973976,5.86240469 L0.802973976,5.91416848 C0.802973976,7.95341595 2.21754177,9.65439231 4.09580994,10.0396093 C3.75185217,10.1383214 3.38911354,10.1876773 3.01463408,10.1876773 C2.75050262,10.1876773 2.49224199,10.1623977 2.24219596,10.1130414 C2.76458805,11.7839219 4.27893926,13.0009687 6.07503236,13.0334729 C4.67102707,14.1626405 2.90076315,14.8355702 0.97906995,14.8355702 C0.648025518,14.8355702 0.320502756,14.8163094 2.3333352e-05,14.7777877 C1.81607062,15.9695553 3.97373068,16.6665558 6.2898617,16.6665558 C13.8381594,16.6665558 17.9644544,10.2563007 17.9644544,4.69592126 C17.9644544,4.51294278 17.9609327,4.3299643 17.9538889,4.15059582 C18.7556729,3.55712035 19.4518068,2.81677809 20.0000233,1.97291074" id="Path"></path>
                </g>
            </g>
        </g>
    </g>
</svg>
