
<svg width="20px" height="18px" viewBox="0 0 20 18" version="1.1" xmlns="http://www.w3.org/2000/svg" xmlns:xlink="http://www.w3.org/1999/xlink">
    <g id="Page-1" stroke="none" stroke-width="1" fill="none" fill-rule="evenodd">
        <g id="Home" transform="translate(-1183.000000, -4732.000000)" fill="#1E1E1E">
            <g id="Group-17" transform="translate(0.000000, 4702.000000)">
                <g id="LinkedIn-Copy" transform="translate(1183.000000, 30.000000)">
                    <path d="M20,18 L15.5797272,18 L15.5797272,11.6722802 C15.5797272,10.0160082 14.8882879,8.88531728 13.3678269,8.88531728 C12.2048448,8.88531728 11.5580903,9.64833195 11.2570555,10.3836844 C11.1441675,10.6476276 11.1618062,11.0153038 11.1618062,11.3829801 L11.1618062,18 L6.7826905,18 C6.7826905,18 6.83913452,6.79106102 6.7826905,5.77217135 L11.1618062,5.77217135 L11.1618062,7.69123391 C11.420508,6.8521483 12.8198495,5.65460716 15.0529163,5.65460716 C17.8233772,5.65460716 20,7.41345969 20,11.2008708 L20,18 L20,18 Z M2.35418627,4.24268425 L2.32596425,4.24268425 C0.914863594,4.24268425 -2.13162821e-14,3.30793366 -2.13162821e-14,2.12307101 C-2.13162821e-14,0.91515656 0.94190969,-3.55271368e-15 2.38123236,-3.55271368e-15 C3.81937912,-3.55271368e-15 4.70366886,0.91285138 4.73189087,2.11961324 C4.73189087,3.30447589 3.81937912,4.24268425 2.35418627,4.24268425 L2.35418627,4.24268425 L2.35418627,4.24268425 Z M0.504468485,5.77217135 L4.40263405,5.77217135 L4.40263405,18 L0.504468485,18 L0.504468485,5.77217135 L0.504468485,5.77217135 Z" id="LinkedIn"></path>
                </g>
            </g>
        </g>
    </g>
</svg>
